<svg xmlns="http://www.w3.org/2000/svg" xml:space="preserve" width="250px" height="250px" version="1.1" style="shape-rendering:geometricPrecision; text-rendering:geometricPrecision; image-rendering:optimizeQuality; fill-rule:evenodd; clip-rule:evenodd"
viewBox="0 0 250 250"
 xmlns:xlink="http://www.w3.org/1999/xlink">
 <g id="Layer_x0020_1">
  <metadata id="CorelCorpID_0Corel-Layer"/>
  <path fill="currentColor" d="M38.36 218.71l-17.24 -215.59 206.96 0 -17.25 215.59 -86.23 25.87 -86.24 -25.87zm116.42 -90.55l-86.24 0 -4.31 -30.18 68.99 -21.56 -68.99 0 -4.31 -25.87 133.67 0 -4.32 30.18 -56.05 21.56 51.74 0 -8.62 81.92 -51.74 17.25 -51.74 -17.25 -4.32 -43.11 25.88 0 4.31 21.56 25.87 8.62 25.87 -8.62 4.31 -34.5z"/>
  <path style="fill: #fff; opacity: 0.3;" d="M210.83 20.37l-86.23 0 0 30.18 68.99 0 -4.32 30.18 -56.05 21.56 51.74 0 -8.62 81.92 -51.74 17.25 0 30.18 68.99 -21.55 17.24 -189.72zm-86.23 56.05l0 2.69 8.62 -2.69 -8.62 0zm0 51.74l0 43.12 25.87 -8.62 4.31 -34.5 -30.18 0z"/>
 </g>
</svg>
