<svg xmlns="http://www.w3.org/2000/svg" viewBox="0 0 250 250">
    <g id="Layer_x0020_1">
        <path fill="currentColor" d="M91.83 30.93l27.7 27.78c0.41,-0.04 1.88,-0.5 2.48,-0.62 9.07,-1.84 18.84,3.94 21.17,13.04 0.55,2.16 0.67,3.41 0.69,5.65 0.01,2.17 -0.65,3.45 -0.95,5.36l26.71 26.8c1.29,-0.23 4.53,-1.36 6.7,-1.02 2.35,0.37 4.12,0.37 6.41,1.44 3.66,1.72 6.44,3.75 8.57,7.26 4.65,7.66 3.35,16.75 -2.87,23.04 -6.11,6.17 -16.12,6.68 -23.21,1.94 -7.11,-4.76 -9.91,-14.21 -6.65,-22.14l-25 -25.09 -0.04 65.52c0.34,0.35 1.95,1.18 2.48,1.56 12.17,8.58 9.77,27.38 -4.39,32.51 -4.42,1.6 -9.29,1.31 -13.47,-0.48 -1.64,-0.7 -3.7,-1.88 -4.96,-3.15 -3.12,-3.16 -5.04,-5.86 -5.88,-10.37 -0.83,-4.49 0.09,-9.07 2.41,-13 1.11,-1.89 2.15,-2.93 3.75,-4.37 2.52,-2.29 4.04,-2.42 4.99,-3.14l0.07 -66.11c-0.6,-0.48 -2.24,-1.11 -3.06,-1.67 -0.92,-0.62 -1.84,-1.26 -2.62,-2.05 -2.55,-2.57 -4.33,-5.25 -5.23,-8.82 -0.56,-2.22 -0.36,-2.33 -0.63,-4.05 -0.13,-0.84 0.21,-3.31 0.39,-4.23 0.29,-1.38 1.01,-3.39 1.03,-3.55l-27.3 -27.33c-2.44,2.06 -5.15,5.08 -7.43,7.36 -2.46,2.46 -4.91,4.91 -7.37,7.37l-51.55 51.56c-5.79,5.78 -11.3,9.58 -10.32,19.06 0.4,3.89 2.49,6.89 5.15,9.57 9.79,9.85 19.64,19.65 29.46,29.46l73.66 73.66c2.87,2.87 4.93,4.75 9.08,5.65 4.12,0.91 8.28,0.1 11.83,-2.16 2.36,-1.5 12.21,-11.77 14.95,-14.51l88.46 -88.45c2.42,-2.42 5.28,-4.82 6.83,-7.9 1.87,-3.72 2.16,-8.33 0.72,-12.25 -1.42,-3.83 -3.54,-5.64 -6.32,-8.42l-95.75 -95.75c-2.3,-2.3 -4.97,-5.27 -7.39,-7.34 -6.42,-5.51 -14.85,-5.43 -21.16,0.2 -2.45,2.17 -5.02,5 -7.38,7.35 -2.45,2.46 -4.91,4.91 -7.36,7.37 -2.31,2.3 -5.35,5.04 -7.4,7.46z"/>
    </g>
</svg>
