<svg xmlns="http://www.w3.org/2000/svg" viewBox="0 0 250 250">
    <g id="Layer_x0020_1">
  <path fill="currentColor" d="M82.32 249.07c6.3,-0.38 10.88,-3.48 10.88,-7.72 0,-3.8 -0.14,-13.86 -0.22,-27.22 -44.35,9.67 -53.71,-21.46 -53.71,-21.46 -7.24,-18.49 -17.7,-23.41 -17.7,-23.41 -14.48,-9.94 1.1,-9.74 1.1,-9.74 15.99,1.13 24.41,16.5 24.41,16.5 14.23,24.46 37.32,17.4 46.41,13.3 1.45,-10.35 5.57,-17.4 10.13,-21.4 -35.41,-4.04 -72.63,-17.77 -72.63,-79.11 0,-17.48 6.21,-31.76 16.41,-42.96 -1.64,-4.05 -7.11,-20.32 1.56,-42.36 0,0 13.39,-4.3 43.84,16.41 12.73,-3.55 26.36,-5.32 39.93,-5.39 13.54,0.07 27.18,1.84 39.92,5.39 30.43,-20.71 43.79,-16.41 43.79,-16.41 8.7,22.04 3.23,38.31 1.59,42.36 10.22,11.2 16.39,25.48 16.39,42.96 0,61.49 -37.28,75.03 -72.8,78.99 5.72,4.94 10.83,14.7 10.83,29.64 0,21.4 -0.2,38.66 -0.2,43.91 0,4.28 2.97,6.48 10.96,7.7l-100.89 0.02z"/>
 </g>
</svg>
