<svg xmlns="http://www.w3.org/2000/svg" viewBox="0 0 250 250">
    <g id="Layer_x0020_1">
        <path fill="currentColor" d="M109.21 8.06l0 21.6c0,2.9 -2.37,5.27 -5.27,5.27l-59.44 0c-5.37,0 -9.74,4.37 -9.74,9.74l0 160.83c0,5.37 4.37,9.74 9.74,9.74l160.83 0c5.37,0 9.74,-4.37 9.74,-9.74l0 -60.87c0,-2.9 2.37,-5.26 5.27,-5.26l21.6 0c2.9,0 5.27,2.36 5.27,5.26l0 80.37c0,12.33 -10.05,22.38 -22.38,22.38l-199.83 0c-12.33,0 -22.38,-10.05 -22.38,-22.38l0 -199.83c0,-12.33 10.05,-22.38 22.38,-22.38l78.94 0c2.9,0 5.27,2.37 5.27,5.27zm105.86 50.36l-72.32 70.46c-2.08,2.02 -5.43,1.98 -7.45,-0.1l-15 -15.43c-2.02,-2.08 -1.98,-5.42 0.1,-7.44l72.87 -70.98 -46.66 0c-2.9,0 -5.27,-2.37 -5.27,-5.27l0 -21.6c0,-2.9 2.37,-5.27 5.27,-5.27l78.22 0c12.33,0 22.38,10.05 22.38,22.38l0 76.8c0,2.9 -2.37,5.26 -5.27,5.26l-21.6 0c-2.9,0 -5.27,-2.36 -5.27,-5.26l0 -43.55z"/>
 </g>
</svg>
