<svg xmlns="http://www.w3.org/2000/svg" viewBox="0 0 250 250">
  <g id="Layer_x0020_1">
  <path fill="currentColor" d="M5.68 122.69l36.64 -34.91 0 -38.47c0,-5.42 4.42,-9.84 9.84,-9.84l1.39 0c5.42,0 9.84,4.42 9.84,9.84l0 18.4 51.39 -48.95c5.45,-5.2 14.03,-5.17 19.45,0.06l109.86 105.98c3.89,3.76 4.01,10 0.26,13.9l-0.93 0.96c-1.88,1.96 -4.19,2.97 -6.9,3.02 -2.72,0.05 -5.07,-0.87 -7.02,-2.76l-102.63 -99.01c-1.36,-1.31 -3.51,-1.31 -4.87,-0.01l-101.83 97.01c-3.93,3.74 -10.18,3.58 -13.92,-0.35l-0.92 -0.96c-3.73,-3.93 -3.58,-10.17 0.35,-13.91zm207.29 35.47l0 56.17c0,11.61 -9.46,21.08 -21.07,21.08l-132.72 0c-11.61,0 -21.08,-9.47 -21.08,-21.08l0 -56.17c0,-5.42 4.42,-9.84 9.84,-9.84l1.39 0c5.42,0 9.84,4.42 9.84,9.84l0 45.64c0,5.8 4.74,10.54 10.55,10.54l111.64 0c5.81,0 10.55,-4.74 10.55,-10.54l0 -45.64c0,-5.42 4.42,-9.84 9.84,-9.84l1.38 0c5.42,0 9.84,4.42 9.84,9.84z"/>
 </g>
</svg>
