<svg xmlns="http://www.w3.org/2000/svg" viewBox="0 0 250 250">
 <g id="Layer_x0020_1">
  <path fill="currentColor" d="M12.91 70.89l96.71 -62.1c8.91,-5.72 19.65,-5.77 28.61,-0.12l98.67 62.25c7.96,5.02 12.42,13.11 12.42,22.53l0 125.61c0,14.67 -11.96,26.64 -26.64,26.64l-53.31 0c-4.9,0 -8.9,-4 -8.9,-8.9l0 -82.87c0,-8.16 -6.65,-14.82 -14.82,-14.82l-41.32 0c-8.16,0 -14.81,6.66 -14.81,14.82l0 82.87c0,4.9 -4,8.9 -8.9,8.9l-53.32 0c-14.67,0 -26.64,-11.97 -26.64,-26.64l0 -125.75c0,-9.34 4.39,-17.37 12.25,-22.42z"/>
 </g>
</svg>
