<svg xmlns="http://www.w3.org/2000/svg" viewBox="0 0 250 250">
<g id="Layer_x0020_1">
    <path fill="currentColor" d="M230.68 5.13l-19.27 215.89 -86.62 24.02 -86.39 -23.98 -19.25 -215.93 211.53 0zm-105.86 124.22l0.1 0 32.51 0 -3.07 34.35 -29.54 7.97 0 0 -0.02 0.01 -29.49 -7.97 -1.89 -21.12 -26.58 0 3.71 41.58 54.24 15.06 0.13 -0.03 0 -0.01 54.19 -15.02 0.4 -4.47 6.23 -69.72 0.64 -7.11 -61.46 0 -0.1 0 -34.95 0 -2.42 -27.12 37.37 0 0.1 0 63.87 0 0.53 -5.95 1.21 -13.43 0.63 -7.1 -66.24 0 0 0 -66.41 0 0.63 7.1 6.51 72.98 59.17 0z"/>
    <path style="fill: #fff; opacity: 0.3;"  d="M124.92 226.68l69.99 -19.41 16.47 -184.48 -86.46 0 0 26.48 0 0 66.24 0 -0.63 7.1 -1.21 13.43 -0.53 5.95 -63.87 0 0 27.12 61.46 0 -0.64 7.11 -6.23 69.72 -0.4 4.47 -54.19 15.02 0 0.01 0 0 0 27.48zm0 -97.33l0 42.29 29.44 -7.94 3.07 -34.35 -32.51 0z"/>
 </g>
</svg>
