<svg xmlns="http://www.w3.org/2000/svg" viewBox="0 0 250 250">
    <g id="Layer_x0020_1">
        <path fill="currentColor" d="M92.77 192.04c0,0 -9.36,5.44 6.66,7.29 19.41,2.21 29.33,1.89 50.72,-2.15 0,0 5.63,3.52 13.48,6.58 -47.95,20.55 -108.52,-1.19 -70.86,-11.72l0 0zm-5.86 -26.82c0,0 -10.5,7.78 5.54,9.43 20.73,2.14 37.11,2.32 65.44,-3.14 0,0 3.92,3.97 10.08,6.15 -57.97,16.95 -122.55,1.33 -81.06,-12.44zm49.4 -45.49c11.81,13.61 -3.11,25.85 -3.11,25.85 0,0 30,-15.49 16.23,-34.88 -12.87,-18.09 -22.74,-27.08 30.68,-58.06 0,0 -83.85,20.94 -43.8,67.09l0 0zm0 0l0 0 0 0zm63.42 92.15c0,0 6.92,5.71 -7.63,10.12 -27.68,8.38 -115.2,10.92 -139.51,0.34 -8.74,-3.81 7.65,-9.08 12.8,-10.19 5.38,-1.17 8.45,-0.95 8.45,-0.95 -9.72,-6.85 -62.82,13.44 -26.97,19.26 97.76,15.85 178.22,-7.14 152.86,-18.58l0 0zm-102.46 -74.44c0,0 -44.52,10.57 -15.76,14.41 12.14,1.63 36.34,1.26 58.88,-0.63 18.43,-1.55 36.93,-4.86 36.93,-4.86 0,0 -6.5,2.78 -11.2,5.99 -45.21,11.89 -132.54,6.36 -107.4,-5.8 21.26,-10.28 38.55,-9.11 38.55,-9.11l0 0zm79.86 44.64c45.96,-23.88 24.71,-46.83 9.88,-43.74 -3.64,0.76 -5.26,1.41 -5.26,1.41 0,0 1.35,-2.11 3.93,-3.03 29.34,-10.31 51.9,30.43 -9.47,46.56 0,0 0.71,-0.63 0.92,-1.2l0 0zm0 0l0 0 0 0zm-27.7 -179.47c0,0 25.45,25.46 -24.14,64.61 -39.77,31.41 -9.07,49.31 -0.02,69.77 -23.21,-20.94 -40.25,-39.38 -28.82,-56.54 16.78,-25.18 63.24,-37.4 52.98,-77.84l0 0zm0 0l0 0 0 0zm-47.64 244.18c44.11,2.82 111.85,-1.57 113.45,-22.44 0,0 -3.08,7.91 -36.45,14.19 -37.65,7.09 -84.09,6.26 -111.63,1.72 0,0 5.64,4.67 34.63,6.53l0 0zm0 0l0 0 0 0z"/>
    </g>
</svg>
