<svg xmlns="http://www.w3.org/2000/svg" xml:space="preserve" width="250px" height="250px" version="1.1" style="shape-rendering:geometricPrecision; text-rendering:geometricPrecision; image-rendering:optimizeQuality; fill-rule:evenodd; clip-rule:evenodd"
viewBox="0 0 250 250"
 xmlns:xlink="http://www.w3.org/1999/xlink">
 <g id="Layer_x0020_1">
  <metadata id="CorelCorpID_0Corel-Layer"/>
  <path fill="currentColor" d="M247.38 125.08c0,-67.59 -54.79,-122.38 -122.39,-122.38 -67.59,0 -122.38,54.79 -122.38,122.38 0,67.6 54.79,122.39 122.38,122.39 67.6,0 122.39,-54.79 122.39,-122.39zm-34.97 41.7c-16.88,16.11 -40.27,26.09 -66.11,26.09 -51.47,0 -93.19,-39.56 -93.19,-88.37 0,-15.46 4.19,-30 11.55,-42.64 -16.74,15.98 -27.08,37.98 -27.08,62.28 0,48.8 41.72,88.36 93.19,88.36 35.16,0 65.77,-18.46 81.64,-45.72zm-0.82 -35.94c-11.84,9.29 -27.18,14.9 -43.93,14.9 -37.53,0 -67.96,-28.13 -67.96,-62.84 0,-13.46 4.58,-25.93 12.37,-36.15 -14.69,11.52 -24.01,28.72 -24.01,47.94 0,34.7 30.42,62.83 67.95,62.83 22.97,0 43.28,-10.54 55.58,-26.68zm-28.4 -28.3c10.99,0 21.05,-3.66 28.83,-9.74 -8.08,10.64 -21.46,17.59 -36.6,17.59 -24.66,0 -44.65,-18.46 -44.65,-41.23 0,-12.63 6.15,-23.93 15.83,-31.49 -5.08,6.69 -8.06,14.84 -8.06,23.64 0,22.77 19.99,41.23 44.65,41.23z"/>
 </g>
</svg>
