<svg xmlns="http://www.w3.org/2000/svg" xml:space="preserve" width="250px" height="250px" version="1.1" style="shape-rendering:geometricPrecision; text-rendering:geometricPrecision; image-rendering:optimizeQuality; fill-rule:evenodd; clip-rule:evenodd"
viewBox="0 0 250 250"
 xmlns:xlink="http://www.w3.org/1999/xlink">

 <g id="Layer_x0020_1">
  <path fill="currentColor" d="M38.29 1.33l173.25 0c20.5,0 37.13,16.63 37.13,37.13l0 173.25c0,20.5 -16.63,37.12 -37.13,37.12l-173.25 0c-20.5,0 -37.12,-16.62 -37.12,-37.12l0 -173.25c0,-20.5 16.62,-37.13 37.12,-37.13l0 0zm119.5 178.86c4.83,8.22 11.6,14.02 22.72,14.02 9.66,0 15.95,-4.83 15.95,-11.6 0,-7.74 -6.29,-10.64 -16.92,-15.47l-5.8 -2.42c-16.92,-7.25 -28.04,-15.95 -28.04,-34.8 0,-17.4 13.05,-30.94 33.84,-30.94 14.98,0 25.62,5.32 32.87,18.85l-17.89 11.61c-3.86,-7.26 -8.21,-10.16 -14.98,-10.16 -6.77,0 -11.12,4.35 -11.12,10.16 0,6.76 4.35,9.66 14.5,14.01l5.8 2.42c19.82,8.7 30.94,16.92 30.94,36.74 0,20.78 -16.43,32.39 -38.67,32.39 -21.75,0 -35.77,-10.15 -42.54,-23.69l19.34 -11.12zm-82.18 1.94c3.87,6.28 6.77,12.08 14.98,12.08 7.74,0 12.57,-2.9 12.57,-14.5l0 -80.25 23.21 0 0 79.28c0,24.17 -14.02,34.81 -34.81,34.81 -18.85,0 -29.49,-9.67 -34.8,-21.27l18.85 -10.15z"/>
 </g>
</svg>
