<svg xmlns="http://www.w3.org/2000/svg" viewBox="0 0 250 250">
    <g id="Layer_x0020_1">
        <path fill="currentColor" d="M124.92 59.46c-36.19,0 -65.63,29.44 -65.63,65.62 0,36.19 29.44,65.63 65.63,65.63 36.18,0 65.62,-29.44 65.62,-65.63 0,-36.18 -29.44,-65.62 -65.62,-65.62zm0 -18.76c5.17,0 9.37,-4.19 9.37,-9.37l0 -18.75c0,-5.18 -4.2,-9.38 -9.37,-9.38 -5.18,0 -9.38,4.2 -9.38,9.38l0 18.75c0,5.18 4.2,9.37 9.38,9.37zm0 168.76c-5.18,0 -9.38,4.2 -9.38,9.38l0 18.75c0,5.18 4.2,9.38 9.38,9.38 5.17,0 9.37,-4.2 9.37,-9.38l0 -18.75c0,-5.18 -4.2,-9.38 -9.37,-9.38zm72.91 -144.05l13.26 -13.25c3.66,-3.67 3.66,-9.6 0,-13.26 -3.66,-3.66 -9.6,-3.66 -13.26,0l-13.26 13.26c-3.66,3.66 -3.66,9.59 0,13.25 3.67,3.67 9.6,3.67 13.26,0zm-145.83 119.35l-13.26 13.25c-3.66,3.67 -3.66,9.6 0,13.26 3.66,3.66 9.6,3.66 13.26,0l13.26 -13.26c3.66,-3.67 3.66,-9.59 0,-13.25 -3.67,-3.67 -9.6,-3.68 -13.26,0zm-11.46 -59.68c0,-5.17 -4.2,-9.37 -9.38,-9.37l-18.75 0c-5.18,0 -9.38,4.2 -9.38,9.37 0,5.18 4.2,9.38 9.38,9.38l18.75 0c5.18,0 9.38,-4.2 9.38,-9.38zm196.88 -9.37l-18.75 0c-5.18,0 -9.37,4.2 -9.37,9.37 0,5.18 4.19,9.38 9.37,9.38l18.75 0c5.18,0 9.38,-4.2 9.38,-9.38 0,-5.17 -4.2,-9.37 -9.38,-9.37zm-185.43 -50.3c3.66,3.67 9.59,3.67 13.25,0 3.67,-3.66 3.67,-9.59 0,-13.25l-13.25 -13.26c-3.67,-3.66 -9.6,-3.66 -13.26,0 -3.66,3.66 -3.66,9.59 0,13.26l13.26 13.25zm145.85 119.33c-3.67,-3.66 -9.59,-3.66 -13.25,0 -3.67,3.67 -3.68,9.6 0,13.26l13.25 13.26c3.67,3.66 9.6,3.66 13.26,0 3.66,-3.66 3.66,-9.6 0,-13.26l-13.26 -13.26z"/>
    </g>
</svg>
