<?xml version="1.0" encoding="UTF-8"?>
<!DOCTYPE svg PUBLIC "-//W3C//DTD SVG 1.1//EN" "http://www.w3.org/Graphics/SVG/1.1/DTD/svg11.dtd">
<!-- Creator: CorelDRAW 2019 (64-Bit) -->
<svg xmlns="http://www.w3.org/2000/svg" xml:space="preserve" width="250px" height="250px" version="1.1" style="shape-rendering:geometricPrecision; text-rendering:geometricPrecision; image-rendering:optimizeQuality; fill-rule:evenodd; clip-rule:evenodd"
viewBox="0 0 250 250"
 xmlns:xlink="http://www.w3.org/1999/xlink">
 <defs>
  <style type="text/css">
   <![CDATA[
    .fil1 {fill:black}
    .fil0 {fill:black}
   ]]>
  </style>
 </defs>
 <g id="Layer_x0020_1">
  <metadata id="CorelCorpID_0Corel-Layer"/>
  <path class="fil0" d="M124.99 190.44c68.62,0 124.25,-29.26 124.25,-65.36 0,-36.09 -55.63,-65.35 -124.25,-65.35 -68.61,0 -124.24,29.26 -124.24,65.35 0,36.1 55.63,65.36 124.24,65.36zm24.19 -45.8l5.92 -30.48c1.34,-6.88 0.23,-12.01 -3.3,-15.25 -3.42,-3.14 -9.22,-4.66 -17.73,-4.66l-10.26 0 2.93 -15.1c0.03,-0.13 0.04,-0.25 0.04,-0.38 0,-1.07 -0.87,-1.94 -1.94,-1.94l-14.15 0c-0.93,0 -1.73,0.66 -1.91,1.58l-6.29 32.35c-0.57,-3.64 -1.98,-6.77 -4.24,-9.35 -4.15,-4.75 -10.71,-7.16 -19.52,-7.16l-27.43 0c-0.93,0 -1.73,0.66 -1.91,1.57l-12.73 65.49c-0.11,0.57 0.04,1.16 0.41,1.61 0.37,0.45 0.92,0.71 1.5,0.71l14.27 0c0.92,0 1.72,-0.66 1.9,-1.58l3.08 -15.84 10.62 0c5.57,0 10.26,-0.6 13.91,-1.79 3.74,-1.22 7.18,-3.28 10.21,-6.12 2.45,-2.25 4.47,-4.77 6.03,-7.49l-2.54 13.09c-0.11,0.57 0.04,1.16 0.41,1.6 0.37,0.45 0.92,0.71 1.5,0.71l14.15 0c0.93,0 1.73,-0.66 1.91,-1.57l6.98 -35.95 9.71 0c4.14,0 5.36,0.82 5.69,1.18 0.3,0.32 0.92,1.46 0.22,5.05l-5.63 28.98c-0.02,0.12 -0.04,0.24 -0.04,0.36 0,1.08 0.87,1.95 1.94,1.95l14.39 0c0,0 0,0 0,0 0.93,0 1.72,-0.66 1.9,-1.57l0 0zm-65.63 -25.18c-0.89,4.57 -2.56,7.83 -4.98,9.68 -2.45,1.9 -6.38,2.86 -11.66,2.86l-6.33 0 4.57 -23.53 8.18 0c6.01,0 8.42,1.28 9.4,2.36 1.34,1.49 1.63,4.48 0.82,8.63l0 0zm125.25 -18.05c-4.15,-4.75 -10.71,-7.16 -19.52,-7.16l-27.43 0c-0.93,0 -1.73,0.66 -1.91,1.57l-12.72 65.49c-0.12,0.57 0.03,1.16 0.4,1.61 0.37,0.45 0.92,0.71 1.5,0.71l14.27 0c0.93,0 1.72,-0.66 1.9,-1.58l3.08 -15.84 10.62 0c5.58,0 10.26,-0.6 13.91,-1.79 3.74,-1.22 7.18,-3.28 10.21,-6.12 2.53,-2.32 4.61,-4.93 6.19,-7.75 1.57,-2.82 2.7,-5.96 3.36,-9.35 1.63,-8.34 0.33,-15 -3.86,-19.79l0 0zm-13.89 18.05c-0.89,4.57 -2.56,7.83 -4.97,9.68 -2.46,1.9 -6.39,2.86 -11.67,2.86l-6.33 0 4.57 -23.53 8.18 0c6.01,0 8.43,1.28 9.4,2.36 1.34,1.49 1.63,4.48 0.82,8.63z"/>
  <path class="fil1" d="M73.33 106.52c5.42,0 9.03,1.01 10.84,3.01 1.8,2 2.23,5.43 1.29,10.3 -0.99,5.07 -2.89,8.69 -5.7,10.85 -2.82,2.17 -7.1,3.26 -12.85,3.26l-8.68 0 5.32 -27.42 9.78 0zm-34.76 55.16l14.26 0 3.39 -17.41 12.22 0c5.39,0 9.83,-0.57 13.31,-1.7 3.48,-1.13 6.65,-3.03 9.5,-5.7 2.39,-2.19 4.32,-4.62 5.8,-7.27 1.48,-2.65 2.53,-5.57 3.16,-8.77 1.51,-7.76 0.37,-13.81 -3.42,-18.14 -3.78,-4.33 -9.8,-6.5 -18.06,-6.5l-27.43 0 -12.73 65.49zm72.11 -82.9l14.16 0 -3.38 17.41 12.61 0c7.93,0 13.4,1.38 16.42,4.15 3.01,2.77 3.91,7.25 2.71,13.45l-5.93 30.48 -14.38 0 5.63 -28.98c0.64,-3.3 0.41,-5.54 -0.7,-6.74 -1.12,-1.2 -3.49,-1.8 -7.11,-1.8l-11.31 0 -7.29 37.52 -14.16 0 12.73 -65.49zm74.01 27.74c5.42,0 9.03,1.01 10.84,3.01 1.8,2 2.23,5.43 1.29,10.3 -0.99,5.07 -2.89,8.69 -5.7,10.85 -2.82,2.17 -7.1,3.26 -12.85,3.26l-8.68 0 5.33 -27.42 9.77 0zm-34.76 55.16l14.26 0 3.39 -17.41 12.22 0c5.39,0 9.83,-0.57 13.31,-1.7 3.48,-1.13 6.65,-3.03 9.5,-5.7 2.39,-2.19 4.32,-4.62 5.8,-7.27 1.48,-2.65 2.53,-5.57 3.16,-8.77 1.51,-7.76 0.37,-13.81 -3.42,-18.14 -3.78,-4.33 -9.8,-6.5 -18.06,-6.5l-27.43 0 -12.73 65.49z"/>
 </g>
</svg>
