<svg xmlns="http://www.w3.org/2000/svg" viewBox="0 0 250 250">
    <g id="Layer_x0020_1">
        <path fill="currentColor" d="M204.49 86.44c-2.56,-0.88 -5.22,-1.72 -7.95,-2.51 0.45,-1.83 0.86,-3.64 1.23,-5.42 6.02,-29.21 2.08,-52.75 -11.36,-60.5 -12.88,-7.43 -33.95,0.32 -55.23,18.84 -2.05,1.78 -4.1,3.67 -6.15,5.64 -1.37,-1.3 -2.73,-2.57 -4.09,-3.78 -22.3,-19.8 -44.66,-28.14 -58.08,-20.37 -12.87,7.45 -16.69,29.57 -11.27,57.26 0.52,2.67 1.14,5.4 1.83,8.18 -3.17,0.9 -6.22,1.86 -9.14,2.87 -26.15,9.12 -42.85,23.41 -42.85,38.23 0,15.3 17.93,30.65 45.16,39.96 2.15,0.74 4.38,1.43 6.68,2.09 -0.75,3 -1.4,5.95 -1.94,8.82 -5.17,27.2 -1.13,48.8 11.7,56.21 13.26,7.64 35.52,-0.22 57.19,-19.16 1.71,-1.49 3.43,-3.08 5.15,-4.75 2.23,2.15 4.46,4.19 6.68,6.09 20.99,18.07 41.72,25.36 54.54,17.93 13.25,-7.66 17.55,-30.87 11.96,-59.1 -0.42,-2.16 -0.92,-4.36 -1.48,-6.6 1.57,-0.46 3.1,-0.94 4.6,-1.44 28.31,-9.38 46.73,-24.54 46.73,-40.05 0,-14.88 -17.24,-29.26 -43.91,-38.44l0 0zm-6.14 68.48c-1.35,0.44 -2.74,0.88 -4.15,1.3 -3.13,-9.9 -7.34,-20.42 -12.51,-31.29 4.93,-10.61 8.99,-21 12.02,-30.83 2.53,0.73 4.98,1.5 7.34,2.31 22.86,7.87 36.8,19.5 36.8,28.47 0,9.54 -15.06,21.94 -39.5,30.04l0 0zm-10.15 20.1c2.48,12.48 2.83,23.77 1.19,32.59 -1.47,7.93 -4.43,13.22 -8.08,15.33 -7.79,4.51 -24.43,-1.35 -42.38,-16.79 -2.06,-1.77 -4.13,-3.66 -6.21,-5.67 6.96,-7.61 13.91,-16.45 20.7,-26.28 11.94,-1.06 23.22,-2.79 33.45,-5.16 0.5,2.04 0.95,4.03 1.33,5.98l0 0zm-102.57 47.15c-7.61,2.68 -13.66,2.76 -17.32,0.65 -7.79,-4.5 -11.03,-21.84 -6.61,-45.11 0.5,-2.66 1.1,-5.4 1.8,-8.19 10.11,2.23 21.31,3.84 33.28,4.81 6.83,9.62 13.99,18.46 21.2,26.19 -1.58,1.53 -3.14,2.97 -4.71,4.34 -9.58,8.37 -19.18,14.32 -27.64,17.31l0 0zm-35.63 -67.31c-12.04,-4.12 -21.98,-9.47 -28.8,-15.3 -6.13,-5.25 -9.22,-10.46 -9.22,-14.68 0,-9 13.41,-20.47 35.77,-28.26 2.71,-0.95 5.55,-1.84 8.5,-2.68 3.09,10.05 7.14,20.57 12.04,31.19 -4.96,10.79 -9.07,21.47 -12.19,31.64 -2.1,-0.61 -4.14,-1.24 -6.1,-1.91l0 0zm11.95 -81.29c-4.65,-23.72 -1.56,-41.61 6.19,-46.1 8.27,-4.78 26.54,2.04 45.79,19.13 1.23,1.1 2.47,2.24 3.71,3.42 -7.18,7.71 -14.27,16.48 -21.04,26.04 -11.62,1.08 -22.73,2.81 -32.96,5.12 -0.64,-2.58 -1.21,-5.12 -1.69,-7.61l0 0zm106.53 26.31c-2.45,-4.22 -4.96,-8.34 -7.51,-12.35 7.88,0.99 15.43,2.32 22.52,3.93 -2.13,6.83 -4.79,13.96 -7.91,21.27 -2.24,-4.25 -4.61,-8.54 -7.1,-12.85l0 0zm-43.45 -42.32c4.87,5.28 9.74,11.16 14.54,17.55 -4.83,-0.23 -9.72,-0.35 -14.65,-0.35 -4.89,0 -9.74,0.12 -14.54,0.34 4.8,-6.32 9.71,-12.2 14.65,-17.54l0 0zm-43.72 42.39c-2.44,4.23 -4.77,8.5 -6.97,12.77 -3.07,-7.28 -5.7,-14.45 -7.85,-21.37 7.05,-1.58 14.56,-2.86 22.39,-3.84 -2.59,4.04 -5.12,8.2 -7.57,12.44l0 0 0 0zm7.8 63.05c-8.09,-0.9 -15.72,-2.13 -22.76,-3.66 2.18,-7.04 4.86,-14.36 8,-21.8 2.21,4.27 4.55,8.53 7,12.77l0 0c2.51,4.33 5.1,8.56 7.76,12.69l0 0zm36.21 29.93c-5,-5.39 -9.98,-11.36 -14.85,-17.78 4.72,0.19 9.55,0.28 14.45,0.28 5.03,0 10.01,-0.11 14.9,-0.33 -4.81,6.53 -9.66,12.51 -14.5,17.83l0 0zm50.36 -55.77c3.3,7.52 6.09,14.8 8.29,21.72 -7.16,1.64 -14.89,2.95 -23.03,3.93 2.56,-4.06 5.09,-8.26 7.58,-12.57 2.51,-4.36 4.9,-8.73 7.16,-13.08l0 0zm-16.3 7.81c-3.86,6.69 -7.82,13.08 -11.85,19.12 -7.33,0.52 -14.9,0.79 -22.61,0.79 -7.69,0 -15.17,-0.24 -22.37,-0.71 -4.18,-6.11 -8.23,-12.52 -12.07,-19.14l0 0c-3.82,-6.61 -7.34,-13.27 -10.53,-19.9 3.19,-6.64 6.7,-13.31 10.5,-19.91l0 0c3.82,-6.61 7.83,-12.99 11.98,-19.06 7.34,-0.56 14.87,-0.85 22.48,-0.85l0.01 0c7.64,0 15.18,0.29 22.53,0.85 4.08,6.03 8.07,12.39 11.89,19 3.88,6.69 7.43,13.32 10.65,19.82 -3.21,6.61 -6.76,13.3 -10.61,19.99l0 0zm21.76 -117.82c8.27,4.77 11.49,24.01 6.29,49.23 -0.33,1.61 -0.7,3.25 -1.11,4.91 -10.24,-2.36 -21.37,-4.12 -33.02,-5.22 -6.78,-9.66 -13.82,-18.44 -20.87,-26.05 1.89,-1.83 3.79,-3.57 5.68,-5.21 18.23,-15.87 35.27,-22.13 43.03,-17.66l0 0zm-56.22 75.67c12.17,0 22.05,9.88 22.05,22.06 0,12.18 -9.88,22.05 -22.05,22.05 -12.18,0 -22.06,-9.87 -22.06,-22.05 0,-12.18 9.88,-22.06 22.06,-22.06l0 0z"/>
 </g>
</svg>
