<svg xmlns="http://www.w3.org/2000/svg" xml:space="preserve" width="250px" height="250px" version="1.1" style="shape-rendering:geometricPrecision; text-rendering:geometricPrecision; image-rendering:optimizeQuality; fill-rule:evenodd; clip-rule:evenodd"
viewBox="0 0 250 250"
 xmlns:xlink="http://www.w3.org/1999/xlink">
 <g id="Layer_x0020_1">
  <path fill="currentColor" d="M38.29 1.33l173.25 0c20.5,0 37.13,16.63 37.13,37.13l0 173.25c0,20.5 -16.63,37.12 -37.13,37.12l-173.25 0c-20.5,0 -37.12,-16.62 -37.12,-37.12l0 -173.25c0,-20.5 16.62,-37.13 37.12,-37.13l0 0zm162.04 113.67c5.6,1.3 10.7,4.24 14.64,8.44 2.17,2.26 4.06,4.8 5.62,7.52 0.07,0.3 -10.11,7.14 -16.28,10.95 -0.22,0.15 -1.11,-0.81 -2.12,-2.3 -2.3,-3.94 -6.45,-6.43 -11.01,-6.59 -7.09,-0.49 -11.66,3.23 -11.63,9.44 0,0.11 -0.01,0.23 -0.01,0.34 0,1.41 0.35,2.8 1.02,4.05 1.56,3.23 4.46,5.16 13.56,9.11 16.76,7.21 23.96,11.97 28.4,18.73 3.06,5.21 4.68,11.16 4.68,17.21 0,3.86 -0.66,7.7 -1.95,11.33 -4.61,10.43 -14.54,17.54 -25.9,18.55 -2.7,0.31 -5.45,0.46 -8.18,0.46 -3.23,0 -6.47,-0.22 -9.66,-0.65 -9.05,-1.48 -17.41,-5.84 -23.82,-12.41 -2.42,-2.72 -4.48,-5.77 -6.1,-9.03 0.69,-0.51 1.41,-0.97 2.16,-1.37 1.04,-0.6 4.98,-2.86 8.69,-5.02l6.75 -3.95 1.41 2.06c2.37,3.39 5.4,6.29 8.89,8.51 3.21,1.76 6.8,2.68 10.46,2.68 4.4,0 8.7,-1.34 12.32,-3.84 1.97,-1.91 3.08,-4.54 3.08,-7.28 0,-2.04 -0.62,-4.03 -1.76,-5.72 -1.82,-2.6 -5.53,-4.79 -16.09,-9.37 -8.28,-2.78 -15.83,-7.42 -22.06,-13.53 -2.98,-3.39 -5.17,-7.39 -6.43,-11.71 -0.55,-2.88 -0.83,-5.8 -0.83,-8.74 0,-2.07 0.15,-4.15 0.42,-6.2 2.53,-11.71 12.13,-20.6 24,-22.23 2.32,-0.27 4.69,-0.42 7.04,-0.42 3.58,0 7.17,0.33 10.69,0.97l0 0.01zm-54.96 9.77l0.07 9.57 -30.5 0 0 86.62 -21.51 0 0 -86.6 -30.5 0 0 -9.4c-0.01,-0.76 -0.03,-1.56 -0.03,-2.32 0,-2.44 0.1,-4.91 0.29,-7.34 0.11,-0.15 18.66,-0.22 41.14,-0.18l40.92 0.11 0.12 9.54z"/>
 </g>
</svg>
