<svg xmlns="http://www.w3.org/2000/svg" viewBox="0 0 250 250">
    <g id="Layer_x0020_1">
  <path fill="currentColor" d="M35.27 216.12c-2.61,-7.1 11.7,-27.37 6.11,-39.96 -7.77,-17.53 -11.02,-15.91 -14.34,-38.23 -13.81,-93.04 99.7,-152.47 168.73,-86.02 19.3,18.58 31.33,47.73 30.21,74.51 -2.47,58.87 -52.7,103.15 -110.89,96.66 -16.92,-1.89 -24.84,-6.97 -39.53,-13.03 -11.4,-4.71 -33.93,8.3 -40.29,6.07zm-28.51 -75.22c1.84,15.05 14.81,40.79 13.72,48.7 -2.12,15.38 -11.13,35.06 -14.46,50.54 -2.12,9.87 12.34,2.4 18.57,0.94 8.19,-1.93 16.61,-4.26 24.8,-6.36 27.7,-7.11 25.74,1.02 50.99,6.57 68.43,15.04 139.53,-34.19 145.32,-104.89 5.96,-72.91 -48.19,-135.08 -122.17,-133.34 -72.89,1.72 -125.6,65.66 -116.77,137.84z"/>
  <path fill="currentColor" d="M96.65 113.15c4.41,-8.99 12.88,-7.04 6.89,-21.63 -1.89,-4.61 -6.89,-20.03 -10.27,-22.21 -17.24,-11.15 -30.66,17.63 -27.46,34.28 4.68,24.32 38.15,59.69 60.73,69.01 18.79,7.75 30.33,14.44 48.9,3.39 6.89,-4.09 13.16,-11.83 11.75,-20.32 -1.06,-6.37 -13.46,-10.95 -19.06,-13.45 -28.81,-12.89 -9.94,23.34 -41.31,5.51 -10.51,-5.97 -30.14,-21.68 -30.17,-34.58z"/>
 </g>
</svg>
