<svg xmlns="http://www.w3.org/2000/svg" viewBox="0 0 500 500">
  <g id="Layer_x0020_1">
   <path fill="currentColor" d="M341.88 458.02l-0.4 -15.87 16.1 -0.05 -0.29 15.61 -15.41 0.31zm115.65 -33.9l-17.58 -0.19 -0.13 16.41 -14.91 -0.09 -0.14 -31.56 16.67 0.08 0.1 -32.9 15.96 -0.38 -0.02 16.44 16.14 -0.03 0.09 15.98 -16.25 0.24 0.07 16zm-99.38 -65.6l49.26 0 0.08 49.54 -49.06 0.05 -0.28 -49.59zm-168.26 0.46l-0.09 14.97 -14.39 0.18 -0.05 -14.84 14.53 -0.31zm50.03 15.31l-14.76 -0.24 -0.3 -31.67 15.19 -0.19 -0.13 32.1zm-48.51 -32.29l16.67 -0.08 0 16.18 -16.66 -0.04 -0.01 -16.06zm-17.09 15.87l-16.04 0.23 -0.24 -32.45 31.88 0.01 0.22 14.48 -15.84 -0.01 0.02 17.74zm234.11 -32.38l15.16 -0.03 0.16 14.69 -15.32 0.09 0 -14.75zm-150.06 -0.06l15.52 0 -0.03 14.73 -15.41 0.05 -0.08 -14.78zm-49.97 -0.02l15.3 0 0.09 14.57 -15.43 0.16 0.04 -14.73zm16.84 -1.66l-0.19 -15.11 14.79 -0.03 0.1 15.14 -14.7 0zm114.76 0.15l-15.81 0.43 -0.43 17.49 16.33 -0.04 -0.07 97.93 -15.06 0.35 -0.11 -31.74 -16.37 -0.58 -0.22 -32.31 16.58 -0.13 -0.02 -17.09 -33.17 -0.12 -0.27 -16.34 16.77 0.05 0.12 -17.45 -16.71 -0.05 0.01 -15.68 33.24 -0.06 -0.04 -33.33 32.93 0.18 0.08 16.41 15.66 0.06 0.28 33.66 15.98 -0.21 -0.32 14.74 -30.89 0.26 -0.28 -31.81 -18.11 -0.43 -0.1 15.81zm118.39 -15.71l-0.5 -16.06 15.75 -0.2 0.13 16.08 -15.38 0.18zm-100.26 -49.14l15.26 -0.61 0.46 15.83 -15.53 0.06 -0.19 -15.28zm-249.75 -0.01l15.98 -0.43 0.02 15.63 -15.8 0.05 -0.2 -15.25zm-83.36 -16.83l16.54 -0.22 0.04 -16.76 16.61 0.2 0.08 16.72 15.75 -0.03 0.4 16.12 -49.24 0.05 -0.18 -16.08zm34.22 -50.07l14.7 -0.04 0.34 32.26 -15.04 -0.04 0 -32.18zm365.6 -16.65l14.83 0.12 0.27 16.36 17.48 -0.06 0.17 33.2 16.09 0.07 -0.39 14.93 -15.79 0.4 0.02 49.47 -16.07 0.47 0.05 -82.3 -16.59 0.03 -0.07 -32.69zm-283.2 16.73l16.01 -0.24 0.38 16.02 -16.27 0.17 -0.12 -15.95zm183.14 -17.18l32.89 0.12 0.12 16.77 49.57 -0.02 0.27 16.64 15.94 -0.13 -0.27 49.43 -15.59 0.38 -0.03 17 15.96 0.13 -0.05 32.79 -15.34 0.09 -0.2 -17.95 -16.55 0.07 -0.04 -32.06 -16.72 -0.53 -0.05 -15.64 16.46 -0.24 0.24 -33.65 -17.51 -0.18 -0.03 16.28 -15.39 0.05 -0.17 -16.15 -16.69 -0.03 -0.05 -17.5 -17.01 -0.15 0.24 -15.52zm-33.37 -0.04l16.77 -0.02 0 15.4 -16.8 0.21 0.03 -15.59zm-66.58 -82.84l15.11 -0.21 0.31 33.27c3.63,0.02 14.9,-1.32 17.33,0.3l0.48 16.37 15.62 -0.06 0.16 16.27 -15.9 0.24 0.15 15.82c-2.6,0.44 -14.49,0.67 -16.39,-0.23l-0.12 -15.51 -16.58 -0.14 -0.17 -66.12zm50.1 33.31l14.7 -0.33 0.52 15.58 -15.02 -0.07 -0.2 -15.18zm-99.91 -0.08l16.44 -0.21 0.01 -16.54 16.39 0.01 0.13 49.62 -16.15 0.07 -0.4 -17.71 -16.16 0.07 -0.26 -15.31zm149.62 -16.46l15.36 -0.27 0.11 15.66 -15.14 -0.04 -0.33 -15.35zm-66.37 0.02l15.57 -0.38 0.08 15.83 -15.47 -0.05 -0.18 -15.4zm-83.21 -17.13l15.2 0 -0.14 16.44 -14.96 0.07 -0.1 -16.51zm-16.94 -67.31l-17.74 0.19 -0.08 16.95 17.7 0.08 0.84 -16.04 14.98 -0.2 0.59 33.1 15.64 0.03 0.08 15.43 -15.8 0.21 0.03 16.37 -15.95 0 -0.14 -16.25 -17.87 0.05 -0.02 17.3 17.71 0.08 -0.1 16.63 -17.72 -0.23 0.04 16.73 17.49 0.77 0.25 16.14c2.94,-0.04 14.31,-0.73 15.85,0.55l0.41 15.82 -15.9 -0.09 -0.35 15.85 -17.72 0.36 -0.07 16.17 -15.2 0.01 -0.06 -16.13 -16.68 -0.04 -0.19 17.52 15.87 0.46 0.28 15.59 -32.57 0.31 -0.1 -17.64 -16.63 -0.03 -0.06 -16.11 -16.15 -0.54 -0.82 -33.15 -16.95 -0.29 -0.39 17.73 -15.56 0.27 -0.03 -17.87 -16.72 0 -0.08 17.96 16.02 -0.01 0.32 16.53 16.01 0.11 0.07 32.78 -15.54 0.28 -0.01 -17.7 -16.63 -0.06 -0.15 18.04 16.42 -0.12 -0.3 31.72 -15.61 0.18 -0.53 51.47 33.24 0 0.1 -16.53 16.71 0.14 -0.22 33.17 16.39 0.01 -0.14 15.63 -49.31 0.21 0.05 -16.2 -16.85 -0.05 0.02 17.17 15.73 0.02 0.42 14.79 -16.15 0.07 0.14 17.95 16.5 0.44 -0.01 -16.76 15.79 -0.05 -0.1 16.79 50.93 -0.03 -0.02 -50.42 -16.16 -0.01 -0.22 -15.98 16.19 -0.4 0.28 -16.09 16.52 -0.29 0.17 16.5 32.99 -0.15 0.06 -16.38 16.72 0.12 0.02 16.35 17.02 -0.05 -0.11 -16.17 15.02 -0.16 -0.01 16.25 5.03 0.11c0.79,-3.7 3.65,-13.37 3.62,-16.31 -0.05,-7.04 -6.51,-12.19 -5.01,-34.91 0.28,-4.39 3.81,-14.44 3.68,-16.05l-7.01 -0.1 -0.28 33.59 -15.55 0.29 -0.16 15.92 -15.91 0.23 -0.34 -15.85 -16.6 -0.27 0.09 -17.54 -33.17 -0.36 -0.12 17.96 -16.6 -0.1 -0.1 -17.62 -16.71 -0.62 -0.01 -14.29 50 -0.61 0.03 -16.38 15 -0.4 0.41 16.7 34.54 0.16 0.18 -66.04c2.21,-0.88 13.55,-1.14 14.93,-0.3l0.18 49.49c18.66,0.91 15.51,1.37 25.08,-6.39 6.75,-5.47 18.37,-8.87 20.5,-10.83l-10.63 -0.43 -0.21 -15.34c2.36,-0.81 13.59,-0.72 15.2,0.2l0.17 14.39c39.53,-5.71 51.17,17.99 57.45,18.48l26.09 0.28 0.04 33.18 33.9 -0.01 -0.02 16.12 -47.34 0.22c-3.93,7.6 -2.02,14.53 -13.07,27.74 -6.37,7.63 -14.32,13.3 -23.63,16.96 -10.19,4 -23.62,7.6 -33.94,3.24 -3.34,-1.42 -12.15,-5.05 -15.38,-4.41 -3.2,0.64 -13.11,3.37 -16.16,4.44l-0.16 18.29 -15.74 -0.19 0 -15.81 -34.35 -0.35 -0.08 16.26 -16.22 -0.15 -0.18 -16.03 -32.64 -0.14 -0.4 17.43 15.51 0.24 -0.12 14.19 -15.33 0.25 -0.14 18.5 31.83 -0.21 0.15 16.87 34.02 0.31 -0.03 31.94 -33.95 0.76 0.44 16.34 67.08 0.52 0.19 32.81 -16.52 0 -0.02 -17.24 -50.9 -0.5 -0.23 18.6 33.73 -0.11 0.21 15.02 -33.96 0.34 0 17.45 34.33 0.43 0.24 -16.73 14.97 -0.13 0.31 16.78 34.3 0.07 0.38 -68.01 -16.47 -0.02 -0.18 -15.36 16.47 0.03 0.1 -16.48 16.62 -0.22 0.14 -16.33 33.06 -0.33 0.08 -16.68 15.12 -0.04 0.38 83.25 33.54 0.2 0.2 15.93 -65.39 0.17 -0.26 -17.46 -17.91 -0.43 -0.12 51.67 17.96 0 0.06 -16.34 15.33 -0.33 0.37 16.64 17.27 0.17 0.74 -16.73 47.84 -0.18 0.32 16.94 17.87 -0.07 0.16 -16.78 16.65 -0.03 -0.15 -34.9 -16.39 0.04 -0.14 -15.05 31.86 -0.16 -0.03 33.57 17.54 0.04 -0.01 15.28 -17.41 0.06 -0.05 17.78 50.77 0.15 0.56 -17.94 -16.51 0.15 -0.22 -15.53 16.77 0.24 0.05 -16.73 16.27 -0.2 0.21 -16.57 16.6 -0.28 0.13 -16.33 16.66 0 0.01 -50.16 -51.17 -0.91 -0.5 16.41 -15 0 0 -32.21 16.61 -0.04 0.13 -17.5 -16.19 0.03 -0.29 -15.84 31.89 0.49 0.66 32.77 17.17 -0.08 0.04 -16.33 16.58 0.06 0.13 -50.93 -16.61 -0.05 -0.1 -16.01 16.38 -0.41 -0.03 -49.79 -16.13 -0.23 -0.21 -16.14 16.65 0.02 -0.01 -33.5 -16.15 -0.04 -0.36 -17.65 -17.36 -0.25 0.07 17.98 16.11 -0.08 0.05 15.6 -32.34 0.37 0.23 -16.04 -16.57 -0.45 -0.18 -17.15 -17.33 -0.16 -0.02 17.78 15.71 -0.06 0.52 15.97 -32.22 0.02 -0.03 -15.7 -99.8 -0.25 -0.32 -16.45 16.76 0.16 0.15 -16.73 15.48 0.14 0.15 16.39 17.51 0.1 0.1 -16.64 16.68 -0.16 -0.08 -34.3 -50.2 -0.3 -0.04 33.75 -16.43 -0.1 0 -48.97 33.26 -0.03 -0.09 -16.66 33.45 0.01 0.11 -17.79 -16.68 0.01 0.12 -15.98 -16.76 -0.13 -0.08 -16.02 -34.6 -0.28 0 16.73 17.42 0.3 0.24 32.96 -32.67 0.1 0 -17.94 -17.04 0 -0.05 17.99 15.83 0 -0.05 31.5 -32.08 0 -0.29 -31.49 -16.21 -0.05 -0.44 -16.49 16.53 -0.11 0 -16.37 16.92 -0.21 0.03 -16.9 -18.2 0.03 0.11 16.08 -15.98 0.17 -0.08 15.84 -16.16 0.03 0.04 17.82c-3.23,0.14 -14.13,0.51 -16.55,-0.52l-0.05 -49.48 -33.41 -0.02 0.07 16.16zm0.26 84.13l15.85 0 0 15.74 -15.85 0 0 -15.74z"/>
   <path fill="currentColor" d="M391.57 25.48l82.12 0.24 0.02 82.57 -82.26 -0.08 0.12 -82.73zm-17.41 -16.99l-0.34 116.6 117.58 0.01 0.02 -116.35 -117.26 -0.26z"/>
   <path fill="currentColor" d="M25.03 391.88l83.28 0.07 -0.14 82.1 -83.2 -0.08 0.06 -82.09zm-16.46 100.09l116.43 -0.14 0.11 -117.62 -116.71 0.1 0.17 117.66z"/>
   <path fill="currentColor" d="M24.99 108.31c-0.32,-8.53 -0.77,-80.21 0.32,-82.76l82.25 0c1.59,1.97 0.9,73.23 0.68,82.76l-83.25 0zm-16.68 16.92l116.78 0 -0.04 -116.97 -116.32 0 -0.42 116.97z"/>
   <path fill="currentColor" d="M213.24 287.45c-1.11,-3.03 4.99,-11.68 2.61,-17.05 -3.32,-7.48 -4.71,-6.79 -6.12,-16.31 -5.89,-39.69 42.54,-65.05 71.99,-36.7 8.24,7.93 13.37,20.36 12.89,31.79 -1.06,25.12 -22.49,44.01 -47.31,41.24 -7.22,-0.81 -10.6,-2.97 -16.87,-5.56 -4.86,-2.01 -14.47,3.54 -17.19,2.59zm-12.16 -32.09c0.78,6.42 6.32,17.4 5.85,20.78 -0.9,6.56 -4.75,14.96 -6.17,21.56 -0.9,4.21 5.27,1.02 7.92,0.4 3.5,-0.82 7.09,-1.82 10.59,-2.71 11.81,-3.04 10.98,0.43 21.75,2.8 29.2,6.42 59.53,-14.59 62,-44.75 2.55,-31.11 -20.56,-57.63 -52.12,-56.89 -31.1,0.73 -53.59,28.01 -49.82,58.81z"/>
   <polygon fill="currentColor" points="40.85,91.85 91.19,91.85 91.19,40.61 40.85,40.61 "/>
   <polygon fill="currentColor" points="407.83,91.75 457.51,91.87 457.51,41.06 407.83,40.78 "/>
   <polygon fill="currentColor" points="91.59,408.17 40.72,408.1 40.72,458.79 91.57,458.62 "/>
   <polygon fill="currentColor" points="474.83,458.8 491.3,458.5 491.27,440.3 473.82,440.37 473.36,457.64 457.67,458.14 457.89,491.91 491.38,491.88 491.17,474.26 474.83,474.1 "/>
   <path fill="currentColor" d="M239.43 243.52c1.88,-3.84 5.5,-3.01 2.94,-9.23 -0.81,-1.97 -2.94,-8.55 -4.38,-9.48 -7.36,-4.75 -13.08,7.52 -11.72,14.63 2,10.38 16.28,25.47 25.91,29.44 8.02,3.31 12.94,6.16 20.87,1.45 2.93,-1.75 5.61,-5.05 5.01,-8.67 -0.45,-2.72 -5.74,-4.67 -8.13,-5.74 -12.3,-5.5 -4.24,9.96 -17.63,2.35 -4.48,-2.55 -12.86,-9.25 -12.87,-14.75z"/>
   <polygon fill="currentColor" points="373.81,391.63 391.27,391.88 391.42,374.3 373.73,374.1 "/>
   <polygon fill="currentColor" points="74.47,158.58 91.19,158.73 91.67,140.65 74.26,140.61 "/>
   <polygon fill="currentColor" points="108.29,158.62 125.04,158.59 125.05,140.61 108.22,140.58 "/>
   <polygon fill="currentColor" points="258.09,408.65 274.59,408.41 274.75,390.34 258.1,390.41 "/>
 </g>
</svg>
